<svg id="Layer_1" data-name="Layer 1" xmlns="http://www.w3.org/2000/svg" viewBox="0 0 200 200"><defs><style>.cls-1{fill:#ec9b6a;}.cls-2{fill:none;stroke:#fff;stroke-miterlimit:10;stroke-width:3.54px;}</style></defs><circle class="cls-1" cx="100" cy="100" r="100"/><path class="cls-2" d="M14,75.81C19.47,78,26.21,83.18,33.15,88.88c5.19,5.76,10.49,16.16,15.3,20.9,5.45,5.59,15.83,13,18.4,7.83,1.77-3.53-11.39-10.67-11.22-14.8.07-1.85,10.56,4.64,16.3,7.92s7.53,3.91,10.16,4c4.1.16,4.33-4.35,1.71-6.13A169.53,169.53,0,0,0,66.07,99c-3.78-3.38-4.3-5.29,2.15-4.85l19.86,7.28c8,4.69,13.17-6.66,2.28-9.23-12.14-2.86-18.14-6.44-18.14-6.44-1.57-.44-11.88-6.41,2.41-4.09,0,0,2.58,1,13.28,3s13.85-8.28.92-10-22.07-2.13-22.07-2.13c-5.42-.47-8.28-3.71,1-5.43,18.5-3.43,15.67-13.22-6.55-7.55a31.48,31.48,0,0,0-10.07,5c-8.2-1.53-15.76-3.5-22-6.42"/><path class="cls-2" d="M185.16,139.37c-5.09-3-10.94-9.16-16.92-15.87-4.25-6.49-7.87-17.58-11.89-23-4.52-6.36-13.64-15.27-17-10.58-2.29,3.22,9.61,12.31,8.81,16.36-.36,1.81-9.71-6.22-14.88-10.34s-6.85-5-9.42-5.53c-4-.8-5,3.62-2.64,5.79a169.26,169.26,0,0,0,16,12.22c3.21,3.92,3.43,5.88-2.88,4.46L115.9,102.6c-7.19-5.86-14,4.56-3.67,8.78,11.55,4.7,16.93,9.17,16.93,9.17,1.47.67,10.75,8.16-3,3.66,0,0-2.39-1.38-12.65-5s-15,6-2.45,9.7,21.48,5.52,21.48,5.52c5.27,1.3,7.6,4.94-1.85,5.21-18.81.52-17.53,10.63,5.31,8.47a31.87,31.87,0,0,0,10.72-3.42c7.86,2.77,15,5.89,20.73,9.74"/></svg>