<svg id="Layer_1" data-name="Layer 1" xmlns="http://www.w3.org/2000/svg" viewBox="0 0 84.56 76.31"><defs><style>.cls-1{fill:#e8b497;}.cls-2{fill:#ec9b6a;}.cls-3{fill:#b2d1d6;}.cls-4{fill:#fbfdff;}</style></defs><path class="cls-1" d="M26.12,6.65C40.37,6.31,49.47,9,62,6.29c10.16-2.16,27.39,6.82,27,19.5-.47.06,1.18,15.13-3.46,21.7-1.12,1.58-10.49,19.45-19.69,24.07a3.09,3.09,0,0,1-.35.14c-2,.57-5.56-2.42-6.22-5.07C58.11,61.82,66.79,59,70.61,47.86c.7-2,1.9-5.67.36-7.12-1.77-1.66-6.08.62-9.11,1.83C50.72,47,39,45.67,25.94,40.56c-8.36-3.27-14.32-4.41-19.51-9.84-3.1-3.25-2.17-13.78.36-16.41C8.24,12.81,11.86,7,26.12,6.65Z" transform="translate(-4.47 -5.97)"/><path class="cls-2" d="M64.05,31.17c-.93,10.49-9.22,23.08-18,21.24-5.45-1.14-15.61-11.06-18-21.24-2.91-12.52,9.46-21.85,18-21.25A19.6,19.6,0,0,1,64.05,31.17Z" transform="translate(-4.47 -5.97)"/><path class="cls-3" d="M59.05,65.58l6.52,5.32-1.25,1.52-.5,3.28L59.74,81c-1.16,1.28-2.37.94-3.59-.1l.91-1.12c-1.41,1.77-2.69,2.14-3.82.65l1.41-1.68c-1.37,2-2.69,2.6-3.93.89L52.88,77l-3.6,4.41c-2.29,2.08-4.48.26-2.74-2.23,0,0,5.49-6.47,5.59-6.86.42-.51-.64.53-.64.53H49.73c-2.15-.49-2.06-1.47-.37-2.8l3.11-.56a17.76,17.76,0,0,1,5.2-2.2Z" transform="translate(-4.47 -5.97)"/><path class="cls-4" d="M36.25,31.55c-1,0-1.67-.34-1.67-1.07a2.77,2.77,0,0,1,.3-1.08,6.73,6.73,0,0,1,2.94-2.54l0-.69a7.35,7.35,0,0,1,.72-.75h.1c0,1.43,0,2.86.06,4.29,0,.65.07,1.06.35,1.3a1.46,1.46,0,0,0,1,.24h.22v1.18H40a1.72,1.72,0,0,1-1.91-1.28A4.45,4.45,0,0,1,36.25,31.55Zm1.63-3.66c-1.64.84-2.49,1.53-2.49,2s.55.52,1.18.52a4.29,4.29,0,0,0,1.36-.26Z" transform="translate(-4.47 -5.97)"/><path class="cls-4" d="M40.4,31.25c.7,0,1.44-.28,1.58-.81l.27-1,.63-.46.06.07a4.77,4.77,0,0,0-.2,1.07.9.9,0,0,0,.3.76,1.72,1.72,0,0,0,1.14.37h.17v1.18h-.21a1.85,1.85,0,0,1-1.9-.94h0a2,2,0,0,1-1.83.94h-.18a.59.59,0,0,1-.64-.62.57.57,0,0,1,.64-.56Zm1,4.86c-.38-.36-.71-.66-1.08-1a8.74,8.74,0,0,1,.73-.88,9.6,9.6,0,0,1,1,1A5.38,5.38,0,0,1,41.44,36.11ZM43.22,36c-.38-.36-.71-.66-1.08-1a8.74,8.74,0,0,1,.73-.88,9.6,9.6,0,0,1,1.05,1A5.38,5.38,0,0,1,43.22,36Z" transform="translate(-4.47 -5.97)"/><path class="cls-4" d="M44.51,31.25a6.19,6.19,0,0,0,1.81-.17c.33-.12.53-.25.53-.41a7.66,7.66,0,0,0-.92-2.28,7.82,7.82,0,0,1,.69-1h.05a6.58,6.58,0,0,1,.92,2.81,2.78,2.78,0,0,1-.65,1.72c-.41.41-1.07.55-2.48.55h-.11a.59.59,0,0,1-.64-.62.57.57,0,0,1,.64-.56Zm1.74,2.92a8.4,8.4,0,0,1,1.11,1,4.09,4.09,0,0,1-.77.9c-.36-.34-.72-.63-1.09-1C45.75,34.78,46,34.46,46.25,34.17Z" transform="translate(-4.47 -5.97)"/><path class="cls-4" d="M52.06,29.26c.53,1.26,1,2,2.07,2h.17v1.18h-.19a1.28,1.28,0,0,1-.93-.29h0c0,.11,0,.22,0,.32a3.11,3.11,0,0,1-.37,1.43c-.73,1.28-1.52,1.83-2.2,1.83A5.32,5.32,0,0,1,48.28,35l.14-.31a2.43,2.43,0,0,0,1.06.2,3.65,3.65,0,0,0,3.06-2.76,2.28,2.28,0,0,0-.25-.42,8.88,8.88,0,0,1-.8-1.37c.18-.43.35-.77.51-1.07Z" transform="translate(-4.47 -5.97)"/><path class="cls-4" d="M54.88,31.25a5.55,5.55,0,0,0,1.37-.19v0a2.1,2.1,0,0,1-1.08-1.81,2.35,2.35,0,0,1,.4-1.2,2.27,2.27,0,0,1,1.9-1.24,2.36,2.36,0,0,1,2.05,1.5l-.18.19a2.31,2.31,0,0,0-1.65-.59c-1,0-1.68.45-1.68.77a1.73,1.73,0,0,0,.79,1.31,2.3,2.3,0,0,0,1.12.5,9.45,9.45,0,0,0,2.63-.65l.05,0L60.11,31c-1.45.52-2.15.59-3.27,1a7.33,7.33,0,0,1-2.25.5H54.3a.59.59,0,0,1-.64-.62.57.57,0,0,1,.64-.56Z" transform="translate(-4.47 -5.97)"/></svg>